<?xml version="1.0" encoding="UTF-8" standalone="no"?>
<!-- Generator: Adobe Illustrator 16.0.0, SVG Export Plug-In . SVG Version: 6.00 Build 0)  -->

<svg
   xmlns:dc="http://purl.org/dc/elements/1.1/"
   xmlns:cc="http://creativecommons.org/ns#"
   xmlns:rdf="http://www.w3.org/1999/02/22-rdf-syntax-ns#"
   xmlns:svg="http://www.w3.org/2000/svg"
   xmlns="http://www.w3.org/2000/svg"
   xmlns:sodipodi="http://sodipodi.sourceforge.net/DTD/sodipodi-0.dtd"
   xmlns:inkscape="http://www.inkscape.org/namespaces/inkscape"
   version="1.1"
   id="Layer_1"
   x="0px"
   y="0px"
   width="512px"
   height="512px"
   viewBox="0 0 512 512"
   enable-background="new 0 0 512 512"
   xml:space="preserve"
   inkscape:version="0.48.2 r9819"
   sodipodi:docname="quill-1.svg"><metadata
   id="metadata3001"><rdf:RDF><cc:Work
       rdf:about=""><dc:format>image/svg+xml</dc:format><dc:type
         rdf:resource="http://purl.org/dc/dcmitype/StillImage" /></cc:Work></rdf:RDF></metadata><defs
   id="defs2999" /><sodipodi:namedview
   pagecolor="#ffffff"
   bordercolor="#666666"
   borderopacity="1"
   objecttolerance="10"
   gridtolerance="10"
   guidetolerance="10"
   inkscape:pageopacity="0"
   inkscape:pageshadow="2"
   inkscape:window-width="1366"
   inkscape:window-height="745"
   id="namedview2997"
   showgrid="false"
   inkscape:zoom="1.0859375"
   inkscape:cx="272.88745"
   inkscape:cy="226.59244"
   inkscape:window-x="-8"
   inkscape:window-y="-8"
   inkscape:window-maximized="1"
   inkscape:current-layer="Layer_1" />

<text
   xml:space="preserve"
   style="font-size:18.36866188px;font-style:normal;font-variant:normal;font-weight:normal;font-stretch:normal;text-align:start;line-height:125%;letter-spacing:0px;word-spacing:0px;text-anchor:start;fill:#000000;fill-opacity:1;stroke:none;font-family:Ek Mukta;-inkscape-font-specification:Ek Mukta"
   x="24.374594"
   y="110.79761"
   id="text3787"
   sodipodi:linespacing="125%"><tspan
     sodipodi:role="line"
     x="24.374594"
     y="110.79761"
     id="tspan3793"
     style="font-style:normal;font-variant:normal;font-weight:normal;font-stretch:normal;font-family:Book Antiqua;-inkscape-font-specification:Book Antiqua"
     dx="0 0 0 0 3.0755987 0 0 0 0 0 0 0 0 0 0 3.0755987 0 0 0 0">THE HUMANITIES SCHOOL The Humanities School</tspan></text>

<text
   xml:space="preserve"
   style="font-size:18.36866188px;font-style:normal;font-variant:normal;font-weight:normal;font-stretch:normal;text-align:start;line-height:125%;letter-spacing:0px;word-spacing:0px;text-anchor:start;fill:#000000;fill-opacity:1;stroke:none;font-family:Ek Mukta;-inkscape-font-specification:Ek Mukta"
   x="25.01383"
   y="149.35051"
   id="text3807"
   sodipodi:linespacing="125%"><tspan
     sodipodi:role="line"
     x="25.01383"
     y="149.35051"
     id="tspan3809"
     style="font-style:normal;font-variant:normal;font-weight:normal;font-stretch:normal;font-family:EB Garamond;-inkscape-font-specification:EB Garamond"
     dx="0 0 0 0 3.0755987 0 0 0 0 0 0 0 0 0 0 3.0755987 0 0 0 0">THE HUMANITIES SCHOOL The Humanities School</tspan></text>

<text
   sodipodi:linespacing="125%"
   id="text3813"
   y="187.8336"
   x="25.01383"
   style="font-size:18.36866188px;font-style:normal;font-variant:normal;font-weight:normal;font-stretch:normal;text-align:start;line-height:125%;letter-spacing:0px;word-spacing:0px;text-anchor:start;fill:#000000;fill-opacity:1;stroke:none;font-family:Ek Mukta;-inkscape-font-specification:Ek Mukta"
   xml:space="preserve"><tspan
     dx="0 0 0 0 3.0755987 0 0 0 0 0 0 0 0 0 0 3.0755987 0 0 0 0"
     style="font-style:normal;font-variant:normal;font-weight:normal;font-stretch:normal;font-family:Fanwood;-inkscape-font-specification:Fanwood"
     id="tspan3815"
     y="187.8336"
     x="25.01383"
     sodipodi:role="line">THE HUMANITIES SCHOOL The Humanities School</tspan></text>

<text
   xml:space="preserve"
   style="font-size:18.36866188px;font-style:normal;font-variant:normal;font-weight:normal;font-stretch:normal;text-align:start;line-height:125%;letter-spacing:0px;word-spacing:0px;text-anchor:start;fill:#000000;fill-opacity:1;stroke:none;font-family:Ek Mukta;-inkscape-font-specification:Ek Mukta"
   x="24.447386"
   y="223.1489"
   id="text3819"
   sodipodi:linespacing="125%"><tspan
     sodipodi:role="line"
     x="24.447386"
     y="223.1489"
     id="tspan3821"
     style="font-style:normal;font-variant:normal;font-weight:normal;font-stretch:normal;font-family:Felix Titling;-inkscape-font-specification:Felix Titling"
     dx="0 0 0 0 3.0755987 0 0 0 0 0 0 0 0 0 0 3.0755987 0 0 0 0">THE HUMANITIES SCHOOl The Humanities School</tspan></text>

<text
   xml:space="preserve"
   style="font-size:18.36866188px;font-style:normal;font-variant:normal;font-weight:normal;font-stretch:normal;text-align:start;line-height:125%;letter-spacing:0px;word-spacing:0px;text-anchor:start;fill:#000000;fill-opacity:1;stroke:none;font-family:Ek Mukta;-inkscape-font-specification:Ek Mukta"
   x="26.146709"
   y="257.06555"
   id="text3831"
   sodipodi:linespacing="125%"><tspan
     sodipodi:role="line"
     x="26.146709"
     y="257.06555"
     id="tspan3833"
     style="font-style:normal;font-variant:normal;font-weight:normal;font-stretch:normal;font-family:High Tower Text;-inkscape-font-specification:High Tower Text"
     dx="0 0 0 0 3.0755987 0 0 0 0 0 0 0 0 0 0 3.0755987 0 0 0 0">THE HUMANITIES SCHOOL The Humanities School</tspan></text>

<text
   sodipodi:linespacing="125%"
   id="text3837"
   y="297.28287"
   x="25.580265"
   style="font-size:18.36866188px;font-style:normal;font-variant:normal;font-weight:normal;font-stretch:normal;text-align:start;line-height:125%;letter-spacing:0px;word-spacing:0px;text-anchor:start;fill:#000000;fill-opacity:1;stroke:none;font-family:Ek Mukta;-inkscape-font-specification:Ek Mukta"
   xml:space="preserve"><tspan
     dx="0 0 0 0 3.0755987 0 0 0 0 0 0 0 0 0 0 3.0755987 0 0 0 0"
     style="font-style:normal;font-variant:normal;font-weight:normal;font-stretch:normal;font-family:Imprint MT Shadow;-inkscape-font-specification:Imprint MT Shadow"
     id="tspan3839"
     y="297.28287"
     x="25.580265"
     sodipodi:role="line">THE HUMANITIES SCHOOL The Humanities School</tspan></text>

<text
   xml:space="preserve"
   style="font-size:18.36866188px;font-style:normal;font-variant:normal;font-weight:normal;font-stretch:normal;text-align:start;line-height:125%;letter-spacing:0px;word-spacing:0px;text-anchor:start;fill:#000000;fill-opacity:1;stroke:none;font-family:Ek Mukta;-inkscape-font-specification:Ek Mukta"
   x="25.580265"
   y="336.93375"
   id="text3843"
   sodipodi:linespacing="125%"><tspan
     sodipodi:role="line"
     x="25.580265"
     y="336.93375"
     id="tspan3845"
     style="font-style:normal;font-variant:normal;font-weight:normal;font-stretch:normal;font-family:Ledger;-inkscape-font-specification:Ledger"
     dx="0 0 0 0 3.0755987 0 0 0 0 0 0 0 0 0 0 3.0755987 0 0 0 0">THE HUMANITIES SCHOOL The Humanities School</tspan></text>

<path
   style="fill:#010101;fill-opacity:1"
   inkscape:connector-curvature="0"
   id="path3869"
   d="m 16.008283,103.96347 c 0.968359,-0.82839 2.000424,-2.15197 2.654128,-3.05053 0.01858,-0.22209 0.03724,-0.44636 0.05332,-0.67198 -0.67482,0.35862 -1.350503,0.60067 -1.794835,0.60953 0.645908,-0.55251 1.313975,-1.322246 1.886781,-2.042217 0.02075,-0.370848 0.03892,-0.732528 0.0553,-1.08592 -0.611862,0.304766 -1.207169,0.504243 -1.610486,0.512175 0.561,-0.479894 1.141832,-1.126824 1.659732,-1.760327 0.05328,-1.520347 0.977695,-5.736696 0.977695,-5.736696 -4.93103,6.60402 -8.497686,18.770195 -7.300852,24.903855 l 1.433255,-2.39221 c 0,0 -0.308398,-2.61513 0.131635,-4.19414 0.329585,-1.18276 2.574737,-2.38474 3.64749,-3.70328 0.270091,-0.33127 0.478386,-1.22462 0.638347,-2.37502 -0.857665,0.56062 -1.845557,0.9752 -2.431485,0.98676 z" /><path
   d="m 9.1870564,103.94604 c -0.9683587,-0.82839 -2.0004234,-2.15197 -2.6541282,-3.05053 -0.018578,-0.22208 -0.037241,-0.44636 -0.053318,-0.67197 0.6748196,0.35861 1.3505027,0.60066 1.7948344,0.60952 -0.6459082,-0.55251 -1.3139753,-1.322241 -1.886781,-2.042212 -0.020746,-0.370849 -0.038918,-0.732529 -0.055298,-1.085921 0.6118627,0.304766 1.2071693,0.504243 1.6104867,0.512175 C 7.3818514,97.737208 6.8010199,97.090279 6.2831197,96.456775 6.2298377,94.936428 5.3054246,90.72008 5.3054246,90.72008 c 4.9310304,6.604019 8.4976864,18.7702 7.3008514,24.90385 l -1.433254,-2.3922 c 0,0 0.308398,-2.61513 -0.131635,-4.19415 -0.329585,-1.18275 -2.5747375,-2.38473 -3.6474907,-3.70327 -0.2700906,-0.33127 -0.4783858,-1.22462 -0.6383463,-2.37502 0.8576643,0.56061 1.8455568,0.9752 2.4314846,0.98676 z"
   id="path3887"
   inkscape:connector-curvature="0"
   style="fill:#010101;fill-opacity:1" /><path
   d="m 47.647281,49.802157 c 2.015853,-1.724476 4.164323,-4.479799 5.525152,-6.350349 0.03868,-0.462329 0.07752,-0.929197 0.110997,-1.398874 -1.404786,0.746546 -2.811369,1.250426 -3.736344,1.268871 1.3446,-1.150172 2.735328,-2.752546 3.92775,-4.251325 0.0432,-0.772001 0.08102,-1.524918 0.115119,-2.260581 -1.273725,0.634438 -2.512988,1.049693 -3.352581,1.066205 1.167845,-0.999005 2.376975,-2.345732 3.455097,-3.664508 0.110914,-3.164937 2.035288,-11.942195 2.035288,-11.942195 -10.265024,13.747721 -17.689804,39.074291 -15.19833,51.842854 l 2.983635,-4.979912 c 0,0 -0.641998,-5.443968 0.274028,-8.731025 0.686103,-2.462175 5.359881,-4.964361 7.593053,-7.709192 0.562253,-0.689611 0.995865,-2.549316 1.328859,-4.944127 -1.785418,1.167054 -3.841933,2.030094 -5.061671,2.054158 z"
   id="path3895"
   inkscape:connector-curvature="0"
   style="fill:#010101;fill-opacity:1" /><path
   style="fill:#010101;fill-opacity:1"
   inkscape:connector-curvature="0"
   id="path3897"
   d="m 33.447398,49.765873 c -2.015852,-1.724476 -4.164322,-4.479799 -5.525151,-6.350349 -0.03868,-0.462309 -0.07752,-0.929197 -0.110997,-1.398854 1.404784,0.746526 2.811367,1.250406 3.736342,1.26885 -1.3446,-1.150171 -2.735329,-2.752535 -3.92775,-4.251313 -0.0432,-0.772004 -0.08102,-1.524921 -0.115119,-2.260584 1.273727,0.634438 2.512988,1.049693 3.352583,1.066205 -1.167847,-0.999005 -2.376977,-2.34573 -3.4551,-3.664508 C 27.291292,31.010383 25.366919,22.233127 25.366919,22.233127 35.631943,35.980846 43.056722,61.307428 40.565247,74.075971 L 37.581613,69.09608 c 0,0 0.641999,-5.443969 -0.274027,-8.731046 -0.686104,-2.462155 -5.359882,-4.96434 -7.593053,-7.709172 -0.562254,-0.689611 -0.995866,-2.549316 -1.32886,-4.944126 1.785419,1.167033 3.841933,2.030093 5.061671,2.054158 z" /><path
   style="fill:#010101;fill-opacity:1"
   inkscape:connector-curvature="0"
   id="path3899"
   d="m 110.07353,49.802157 c 2.01585,-1.724476 4.16432,-4.479799 5.52515,-6.350349 0.0387,-0.462329 0.0775,-0.929197 0.111,-1.398874 -1.40479,0.746546 -2.81137,1.250426 -3.73635,1.268871 1.3446,-1.150172 2.73533,-2.752546 3.92775,-4.251325 0.0432,-0.772001 0.081,-1.524918 0.11512,-2.260581 -1.27372,0.634438 -2.51299,1.049693 -3.35258,1.066205 1.16784,-0.999005 2.37697,-2.345732 3.4551,-3.664508 0.11091,-3.164937 2.03528,-11.942195 2.03528,-11.942195 -10.26502,13.747721 -17.6898,39.074291 -15.19833,51.842854 l 2.98364,-4.979912 c 0,0 -0.642,-5.443968 0.27403,-8.731025 0.6861,-2.462175 5.35988,-4.964361 7.59305,-7.709192 0.56225,-0.689611 0.99587,-2.549316 1.32886,-4.944127 -1.78542,1.167054 -3.84193,2.030094 -5.06167,2.054158 z" /><path
   d="m 94.941731,49.765873 c -2.015852,-1.724476 -4.164323,-4.479799 -5.525152,-6.350349 -0.03868,-0.462309 -0.07752,-0.929197 -0.110997,-1.398854 1.404784,0.746526 2.811367,1.250406 3.736342,1.26885 -1.3446,-1.150171 -2.735328,-2.752535 -3.92775,-4.251313 -0.0432,-0.772004 -0.08102,-1.524921 -0.115119,-2.260584 1.273728,0.634438 2.512988,1.049693 3.352583,1.066205 C 91.183791,36.840823 89.974661,35.494098 88.896539,34.17532 88.785625,31.010383 86.861251,22.233127 86.861251,22.233127 97.126275,35.980846 104.55105,61.307428 102.05958,74.075971 L 99.075946,69.09608 c 0,0 0.641998,-5.443969 -0.274028,-8.731046 -0.686103,-2.462155 -5.359881,-4.96434 -7.593053,-7.709172 -0.562253,-0.689611 -0.995865,-2.549316 -1.328859,-4.944126 1.785418,1.167033 3.841933,2.030093 5.061671,2.054158 z"
   id="path3901"
   inkscape:connector-curvature="0"
   style="fill:#010101;fill-opacity:1" /><path
   d="m 168.99461,49.802157 c 2.01585,-1.724476 4.16432,-4.479799 5.52515,-6.350349 0.0387,-0.462329 0.0775,-0.929197 0.11099,-1.398874 -1.40478,0.746546 -2.81137,1.250426 -3.73634,1.268871 1.3446,-1.150172 2.73533,-2.752546 3.92775,-4.251325 0.0432,-0.772001 0.081,-1.524918 0.11512,-2.260581 -1.27373,0.634438 -2.51299,1.049693 -3.35258,1.066205 1.16784,-0.999005 2.37697,-2.345732 3.4551,-3.664508 0.11091,-3.164937 2.03528,-11.942195 2.03528,-11.942195 -10.26502,13.747721 -17.6898,39.074291 -15.19833,51.842854 l 2.98364,-4.979912 c 0,0 -0.642,-5.443968 0.27403,-8.731025 0.6861,-2.462175 5.35988,-4.964361 7.59305,-7.709192 0.56225,-0.689611 0.99586,-2.549316 1.32886,-4.944127 -1.78542,1.167054 -3.84193,2.030094 -5.06167,2.054158 z"
   id="path3903"
   inkscape:connector-curvature="0"
   style="fill:#000000;fill-opacity:1" /><path
   style="fill:#010101;fill-opacity:1"
   inkscape:connector-curvature="0"
   id="path3905"
   d="m 160.09299,49.765873 c -2.01585,-1.724476 -4.16432,-4.479799 -5.52515,-6.350349 -0.0387,-0.462309 -0.0775,-0.929197 -0.111,-1.398854 1.40479,0.746526 2.81137,1.250406 3.73635,1.26885 -1.3446,-1.150171 -2.73533,-2.752535 -3.92775,-4.251313 -0.0432,-0.772004 -0.081,-1.524921 -0.11512,-2.260584 1.27373,0.634438 2.51299,1.049693 3.35258,1.066205 -1.16785,-0.999005 -2.37698,-2.34573 -3.4551,-3.664508 -0.11091,-3.164937 -2.03529,-11.942193 -2.03529,-11.942193 10.26503,13.747719 17.68981,39.074301 15.19833,51.842844 l -2.98363,-4.979891 c 0,0 0.642,-5.443969 -0.27403,-8.731046 -0.6861,-2.462155 -5.35988,-4.96434 -7.59305,-7.709172 -0.56226,-0.689611 -0.99587,-2.549316 -1.32886,-4.944126 1.78542,1.167033 3.84193,2.030093 5.06167,2.054158 z" /><path
   style="fill:#666666;fill-opacity:1"
   inkscape:connector-curvature="0"
   id="path3907"
   d="m 227.03535,49.802157 c 2.01585,-1.724476 4.16433,-4.479799 5.52515,-6.350349 0.0387,-0.462329 0.0774,-0.929197 0.11096,-1.398874 -1.40479,0.746546 -2.81137,1.250426 -3.73636,1.268871 1.34461,-1.150172 2.73534,-2.752546 3.92777,-4.251325 0.0433,-0.772001 0.081,-1.524918 0.11512,-2.260581 -1.27374,0.634438 -2.51299,1.049693 -3.35259,1.066205 1.16785,-0.999005 2.37697,-2.345732 3.45509,-3.664508 0.11096,-3.164937 2.0353,-11.942195 2.0353,-11.942195 -10.26502,13.747721 -17.68981,39.074291 -15.19835,51.842854 l 2.98365,-4.979912 c 0,0 -0.642,-5.443968 0.27402,-8.731025 0.68611,-2.462175 5.35989,-4.964361 7.59305,-7.709192 0.56227,-0.689611 0.99587,-2.549316 1.32887,-4.944127 -1.78541,1.167054 -3.84194,2.030094 -5.06166,2.054158 z" /><path
   d="m 219.33186,49.765873 c -2.01586,-1.724476 -4.16434,-4.479799 -5.52516,-6.350349 -0.0387,-0.462309 -0.0774,-0.929197 -0.11095,-1.398854 1.40478,0.746526 2.81136,1.250406 3.73633,1.26885 -1.3446,-1.150171 -2.73532,-2.752535 -3.92775,-4.251313 -0.0433,-0.772004 -0.081,-1.524921 -0.11512,-2.260584 1.27372,0.634438 2.51299,1.049693 3.35259,1.066205 -1.16784,-0.999005 -2.37697,-2.34573 -3.45509,-3.664508 -0.11096,-3.164937 -2.0353,-11.942193 -2.0353,-11.942193 10.26502,13.747719 17.68981,39.074301 15.19833,51.842844 l -2.98363,-4.979891 c 0,0 0.642,-5.443969 -0.27404,-8.731046 -0.68609,-2.462155 -5.35986,-4.96434 -7.59305,-7.709172 -0.56225,-0.689611 -0.99585,-2.549316 -1.32884,-4.944126 1.7854,1.167033 3.84191,2.030093 5.06166,2.054158 z"
   id="path3909"
   inkscape:connector-curvature="0"
   style="fill:#010101;fill-opacity:1" /><path
   d="m 275.84163,51.594004 c 2.53416,-1.224563 5.48289,-3.470954 7.38449,-5.022374 0.16484,-0.463825 0.33053,-0.932428 0.49182,-1.405194 -1.64298,0.386352 -3.22224,0.523244 -4.17623,0.292265 1.6903,-0.816779 3.55009,-2.084969 5.17844,-3.300478 0.25299,-0.780339 0.4951,-1.542646 0.72891,-2.28817 -1.47824,0.306752 -2.86187,0.397945 -3.72773,0.18793 1.4681,-0.709401 3.0725,-1.764384 4.53495,-2.826106 0.96895,-3.217163 5.31489,-11.702408 5.31489,-11.702408 -14.24617,11.331177 -28.7069,35.309305 -29.60076,49.082644 l 4.40667,-4.303079 c 0,0 0.81228,-5.758788 2.64025,-8.883712 1.36918,-2.34074 6.84041,-3.645071 9.87321,-5.857785 0.7632,-0.555596 1.71054,-2.346433 2.69926,-4.713475 -2.14712,0.714964 -4.49023,1.044753 -5.74815,0.739867 z"
   id="path3911"
   inkscape:connector-curvature="0"
   style="fill:#010101" /><path
   d="m 16.008283,143.03239 c 0.968359,-0.82839 2.000424,-2.15197 2.654128,-3.05053 0.01858,-0.22209 0.03724,-0.44636 0.05332,-0.67198 -0.67482,0.35862 -1.350503,0.60067 -1.794835,0.60953 0.645908,-0.55251 1.313975,-1.32224 1.886781,-2.04222 0.02075,-0.37084 0.03892,-0.73252 0.0553,-1.08592 -0.611862,0.30477 -1.207169,0.50425 -1.610486,0.51218 0.561,-0.47989 1.141832,-1.12682 1.659732,-1.76033 0.05328,-1.52034 0.977695,-5.73669 0.977695,-5.73669 -4.93103,6.60402 -8.497686,18.77019 -7.300852,24.90385 l 1.433255,-2.39221 c 0,0 -0.308398,-2.61513 0.131635,-4.19414 0.329585,-1.18276 2.574737,-2.38474 3.64749,-3.70328 0.270091,-0.33127 0.478386,-1.22462 0.638347,-2.37502 -0.857665,0.56062 -1.845557,0.9752 -2.431485,0.98676 z"
   id="path3923"
   inkscape:connector-curvature="0"
   style="fill:#010101;fill-opacity:1" /><path
   style="fill:#010101;fill-opacity:1"
   inkscape:connector-curvature="0"
   id="path3925"
   d="m 9.1870564,143.01496 c -0.9683587,-0.82839 -2.0004234,-2.15197 -2.6541282,-3.05053 -0.018578,-0.22208 -0.037241,-0.44636 -0.053318,-0.67197 0.6748196,0.35861 1.3505027,0.60066 1.7948344,0.60952 -0.6459082,-0.55251 -1.3139753,-1.32224 -1.886781,-2.04221 -0.020746,-0.37085 -0.038918,-0.73253 -0.055298,-1.08592 0.6118627,0.30476 1.2071693,0.50424 1.6104867,0.51217 -0.5610009,-0.47989 -1.1418324,-1.12682 -1.6597326,-1.76032 -0.053282,-1.52035 -0.9776951,-5.7367 -0.9776951,-5.7367 4.9310304,6.60402 8.4976864,18.7702 7.3008514,24.90385 l -1.433254,-2.3922 c 0,0 0.308398,-2.61513 -0.131635,-4.19415 -0.329585,-1.18275 -2.5747375,-2.38473 -3.6474907,-3.70327 -0.2700906,-0.33127 -0.4783858,-1.22462 -0.6383463,-2.37502 0.8576643,0.56061 1.8455568,0.9752 2.4314846,0.98676 z" /><path
   style="fill:#010101;fill-opacity:1"
   inkscape:connector-curvature="0"
   id="path3927"
   d="m 16.008283,180.79901 c 0.968359,-0.82839 2.000424,-2.15197 2.654128,-3.05053 0.01858,-0.22209 0.03724,-0.44636 0.05332,-0.67198 -0.67482,0.35862 -1.350503,0.60067 -1.794835,0.60953 0.645908,-0.55251 1.313975,-1.32224 1.886781,-2.04222 0.02075,-0.37084 0.03892,-0.73252 0.0553,-1.08592 -0.611862,0.30477 -1.207169,0.50425 -1.610486,0.51218 0.561,-0.47989 1.141832,-1.12682 1.659732,-1.76033 0.05328,-1.52034 0.977695,-5.73669 0.977695,-5.73669 -4.93103,6.60402 -8.497686,18.77019 -7.300852,24.90385 l 1.433255,-2.39221 c 0,0 -0.308398,-2.61513 0.131635,-4.19414 0.329585,-1.18276 2.574737,-2.38474 3.64749,-3.70328 0.270091,-0.33127 0.478386,-1.22462 0.638347,-2.37502 -0.857665,0.56062 -1.845557,0.9752 -2.431485,0.98676 z" /><path
   d="m 9.1870564,180.78158 c -0.9683587,-0.82839 -2.0004234,-2.15197 -2.6541282,-3.05053 -0.018578,-0.22208 -0.037241,-0.44636 -0.053318,-0.67197 0.6748196,0.35861 1.3505027,0.60066 1.7948344,0.60952 -0.6459082,-0.55251 -1.3139753,-1.32224 -1.886781,-2.04221 -0.020746,-0.37085 -0.038918,-0.73253 -0.055298,-1.08592 0.6118627,0.30476 1.2071693,0.50424 1.6104867,0.51217 -0.5610009,-0.47989 -1.1418324,-1.12682 -1.6597326,-1.76032 -0.053282,-1.52035 -0.9776951,-5.7367 -0.9776951,-5.7367 4.9310304,6.60402 8.4976864,18.7702 7.3008514,24.90385 l -1.433254,-2.3922 c 0,0 0.308398,-2.61513 -0.131635,-4.19415 -0.329585,-1.18275 -2.5747375,-2.38473 -3.6474907,-3.70327 -0.2700906,-0.33127 -0.4783858,-1.22462 -0.6383463,-2.37502 0.8576643,0.56061 1.8455568,0.9752 2.4314846,0.98676 z"
   id="path3929"
   inkscape:connector-curvature="0"
   style="fill:#010101;fill-opacity:1" /><path
   d="m 16.008283,217.26334 c 0.968359,-0.82839 2.000424,-2.15197 2.654128,-3.05053 0.01858,-0.22209 0.03724,-0.44636 0.05332,-0.67198 -0.67482,0.35862 -1.350503,0.60067 -1.794835,0.60953 0.645908,-0.55251 1.313975,-1.32224 1.886781,-2.04222 0.02075,-0.37084 0.03892,-0.73252 0.0553,-1.08592 -0.611862,0.30477 -1.207169,0.50425 -1.610486,0.51218 0.561,-0.47989 1.141832,-1.12682 1.659732,-1.76033 0.05328,-1.52034 0.977695,-5.73669 0.977695,-5.73669 -4.93103,6.60402 -8.497686,18.77019 -7.300852,24.90385 l 1.433255,-2.39221 c 0,0 -0.308398,-2.61513 0.131635,-4.19414 0.329585,-1.18276 2.574737,-2.38474 3.64749,-3.70328 0.270091,-0.33127 0.478386,-1.22462 0.638347,-2.37502 -0.857665,0.56062 -1.845557,0.9752 -2.431485,0.98676 z"
   id="path3931"
   inkscape:connector-curvature="0"
   style="fill:#010101;fill-opacity:1" /><path
   style="fill:#010101;fill-opacity:1"
   inkscape:connector-curvature="0"
   id="path3933"
   d="m 9.1870564,217.24591 c -0.9683587,-0.82839 -2.0004234,-2.15197 -2.6541282,-3.05053 -0.018578,-0.22208 -0.037241,-0.44636 -0.053318,-0.67197 0.6748196,0.35861 1.3505027,0.60066 1.7948344,0.60952 -0.6459082,-0.55251 -1.3139753,-1.32224 -1.886781,-2.04221 -0.020746,-0.37085 -0.038918,-0.73253 -0.055298,-1.08592 0.6118627,0.30476 1.2071693,0.50424 1.6104867,0.51217 -0.5610009,-0.47989 -1.1418324,-1.12682 -1.6597326,-1.76032 -0.053282,-1.52035 -0.9776951,-5.7367 -0.9776951,-5.7367 4.9310304,6.60402 8.4976864,18.7702 7.3008514,24.90385 l -1.433254,-2.3922 c 0,0 0.308398,-2.61513 -0.131635,-4.19415 -0.329585,-1.18275 -2.5747375,-2.38473 -3.6474907,-3.70327 -0.2700906,-0.33127 -0.4783858,-1.22462 -0.6383463,-2.37502 0.8576643,0.56061 1.8455568,0.9752 2.4314846,0.98676 z" /><path
   style="fill:#010101;fill-opacity:1"
   inkscape:connector-curvature="0"
   id="path3935"
   d="m 16.008283,251.12307 c 0.968359,-0.82839 2.000424,-2.15197 2.654128,-3.05053 0.01858,-0.22209 0.03724,-0.44636 0.05332,-0.67198 -0.67482,0.35862 -1.350503,0.60067 -1.794835,0.60953 0.645908,-0.55251 1.313975,-1.32224 1.886781,-2.04222 0.02075,-0.37084 0.03892,-0.73252 0.0553,-1.08592 -0.611862,0.30477 -1.207169,0.50425 -1.610486,0.51218 0.561,-0.47989 1.141832,-1.12682 1.659732,-1.76033 0.05328,-1.52034 0.977695,-5.73669 0.977695,-5.73669 -4.93103,6.60402 -8.497686,18.77019 -7.300852,24.90385 l 1.433255,-2.39221 c 0,0 -0.308398,-2.61513 0.131635,-4.19414 0.329585,-1.18276 2.574737,-2.38474 3.64749,-3.70328 0.270091,-0.33127 0.478386,-1.22462 0.638347,-2.37502 -0.857665,0.56062 -1.845557,0.9752 -2.431485,0.98676 z" /><path
   d="m 9.1870564,251.10564 c -0.9683587,-0.82839 -2.0004234,-2.15197 -2.6541282,-3.05053 -0.018578,-0.22208 -0.037241,-0.44636 -0.053318,-0.67197 0.6748196,0.35861 1.3505027,0.60066 1.7948344,0.60952 -0.6459082,-0.55251 -1.3139753,-1.32224 -1.886781,-2.04221 -0.020746,-0.37085 -0.038918,-0.73253 -0.055298,-1.08592 0.6118627,0.30476 1.2071693,0.50424 1.6104867,0.51217 -0.5610009,-0.47989 -1.1418324,-1.12682 -1.6597326,-1.76032 -0.053282,-1.52035 -0.9776951,-5.7367 -0.9776951,-5.7367 4.9310304,6.60402 8.4976864,18.7702 7.3008514,24.90385 l -1.433254,-2.3922 c 0,0 0.308398,-2.61513 -0.131635,-4.19415 -0.329585,-1.18275 -2.5747375,-2.38473 -3.6474907,-3.70327 -0.2700906,-0.33127 -0.4783858,-1.22462 -0.6383463,-2.37502 0.8576643,0.56061 1.8455568,0.9752 2.4314846,0.98676 z"
   id="path3937"
   inkscape:connector-curvature="0"
   style="fill:#010101;fill-opacity:1" /><path
   d="m 16.008283,290.19199 c 0.968359,-0.82839 2.000424,-2.15197 2.654128,-3.05053 0.01858,-0.22209 0.03724,-0.44636 0.05332,-0.67198 -0.67482,0.35862 -1.350503,0.60067 -1.794835,0.60953 0.645908,-0.55251 1.313975,-1.32224 1.886781,-2.04222 0.02075,-0.37084 0.03892,-0.73252 0.0553,-1.08592 -0.611862,0.30477 -1.207169,0.50425 -1.610486,0.51218 0.561,-0.47989 1.141832,-1.12682 1.659732,-1.76033 0.05328,-1.52034 0.977695,-5.73669 0.977695,-5.73669 -4.93103,6.60402 -8.497686,18.77019 -7.300852,24.90385 l 1.433255,-2.39221 c 0,0 -0.308398,-2.61513 0.131635,-4.19414 0.329585,-1.18276 2.574737,-2.38474 3.64749,-3.70328 0.270091,-0.33127 0.478386,-1.22462 0.638347,-2.37502 -0.857665,0.56062 -1.845557,0.9752 -2.431485,0.98676 z"
   id="path3939"
   inkscape:connector-curvature="0"
   style="fill:#010101;fill-opacity:1" /><path
   style="fill:#010101;fill-opacity:1"
   inkscape:connector-curvature="0"
   id="path3941"
   d="m 9.1870564,290.17456 c -0.9683587,-0.82839 -2.0004234,-2.15197 -2.6541282,-3.05053 -0.018578,-0.22208 -0.037241,-0.44636 -0.053318,-0.67197 0.6748196,0.35861 1.3505027,0.60066 1.7948344,0.60952 -0.6459082,-0.55251 -1.3139753,-1.32224 -1.886781,-2.04221 -0.020746,-0.37085 -0.038918,-0.73253 -0.055298,-1.08592 0.6118627,0.30476 1.2071693,0.50424 1.6104867,0.51217 -0.5610009,-0.47989 -1.1418324,-1.12682 -1.6597326,-1.76032 -0.053282,-1.52035 -0.9776951,-5.7367 -0.9776951,-5.7367 4.9310304,6.60402 8.4976864,18.7702 7.3008514,24.90385 l -1.433254,-2.3922 c 0,0 0.308398,-2.61513 -0.131635,-4.19415 -0.329585,-1.18275 -2.5747375,-2.38473 -3.6474907,-3.70327 -0.2700906,-0.33127 -0.4783858,-1.22462 -0.6383463,-2.37502 0.8576643,0.56061 1.8455568,0.9752 2.4314846,0.98676 z" /><path
   style="fill:#010101;fill-opacity:1"
   inkscape:connector-curvature="0"
   id="path3943"
   d="m 16.008283,329.26091 c 0.968359,-0.82839 2.000424,-2.15197 2.654128,-3.05053 0.01858,-0.22209 0.03724,-0.44636 0.05332,-0.67198 -0.67482,0.35862 -1.350503,0.60067 -1.794835,0.60953 0.645908,-0.55251 1.313975,-1.32224 1.886781,-2.04222 0.02075,-0.37084 0.03892,-0.73252 0.0553,-1.08592 -0.611862,0.30477 -1.207169,0.50425 -1.610486,0.51218 0.561,-0.47989 1.141832,-1.12682 1.659732,-1.76033 0.05328,-1.52034 0.977695,-5.73669 0.977695,-5.73669 -4.93103,6.60402 -8.497686,18.77019 -7.300852,24.90385 l 1.433255,-2.39221 c 0,0 -0.308398,-2.61513 0.131635,-4.19414 0.329585,-1.18276 2.574737,-2.38474 3.64749,-3.70328 0.270091,-0.33127 0.478386,-1.22462 0.638347,-2.37502 -0.857665,0.56062 -1.845557,0.9752 -2.431485,0.98676 z" /><path
   d="m 9.1870564,329.24348 c -0.9683587,-0.82839 -2.0004234,-2.15197 -2.6541282,-3.05053 -0.018578,-0.22208 -0.037241,-0.44636 -0.053318,-0.67197 0.6748196,0.35861 1.3505027,0.60066 1.7948344,0.60952 -0.6459082,-0.55251 -1.3139753,-1.32224 -1.886781,-2.04221 -0.020746,-0.37085 -0.038918,-0.73253 -0.055298,-1.08592 0.6118627,0.30476 1.2071693,0.50424 1.6104867,0.51217 -0.5610009,-0.47989 -1.1418324,-1.12682 -1.6597326,-1.76032 -0.053282,-1.52035 -0.9776951,-5.7367 -0.9776951,-5.7367 4.9310304,6.60402 8.4976864,18.7702 7.3008514,24.90385 l -1.433254,-2.3922 c 0,0 0.308398,-2.61513 -0.131635,-4.19415 -0.329585,-1.18275 -2.5747375,-2.38473 -3.6474907,-3.70327 -0.2700906,-0.33127 -0.4783858,-1.22462 -0.6383463,-2.37502 0.8576643,0.56061 1.8455568,0.9752 2.4314846,0.98676 z"
   id="path3945"
   inkscape:connector-curvature="0"
   style="fill:#010101;fill-opacity:1" /><text
   sodipodi:linespacing="125%"
   id="text3026"
   y="375.61002"
   x="25.580265"
   style="font-size:18.36866188px;font-style:normal;font-variant:normal;font-weight:normal;font-stretch:normal;text-align:start;line-height:125%;letter-spacing:0px;word-spacing:0px;text-anchor:start;fill:#000000;fill-opacity:1;stroke:none;font-family:Ek Mukta;-inkscape-font-specification:Ek Mukta"
   xml:space="preserve"><tspan
     dx="0 0 0 0 3.0755987 0 0 0 0 0 0 0 0 0 0 3.0755987 0 0 0 0"
     style="font-style:normal;font-variant:normal;font-weight:normal;font-stretch:normal;font-family:Cardo;-inkscape-font-specification:Cardo"
     id="tspan3028"
     y="375.61002"
     x="25.580265"
     sodipodi:role="line">THE HUMANITIES SCHOOL The Humanities School</tspan></text>
<path
   d="m 16.008283,367.93717 c 0.968359,-0.82839 2.000424,-2.15197 2.654128,-3.05053 0.01858,-0.22209 0.03724,-0.44636 0.05332,-0.67198 -0.67482,0.35862 -1.350503,0.60067 -1.794835,0.60953 0.645908,-0.55251 1.313975,-1.32224 1.886781,-2.04222 0.02075,-0.37084 0.03892,-0.73252 0.0553,-1.08592 -0.611862,0.30477 -1.207169,0.50425 -1.610486,0.51218 0.561,-0.47989 1.141832,-1.12682 1.659732,-1.76033 0.05328,-1.52034 0.977695,-5.73669 0.977695,-5.73669 -4.93103,6.60402 -8.497686,18.77019 -7.300852,24.90385 l 1.433255,-2.39221 c 0,0 -0.308398,-2.61513 0.131635,-4.19414 0.329585,-1.18276 2.574737,-2.38474 3.64749,-3.70328 0.270091,-0.33127 0.478386,-1.22462 0.638347,-2.37502 -0.857665,0.56062 -1.845557,0.9752 -2.431485,0.98676 z"
   id="path3030"
   inkscape:connector-curvature="0"
   style="fill:#010101;fill-opacity:1" /><path
   style="fill:#010101;fill-opacity:1"
   inkscape:connector-curvature="0"
   id="path3032"
   d="m 9.1870564,367.91974 c -0.9683587,-0.82839 -2.0004234,-2.15197 -2.6541282,-3.05053 -0.018578,-0.22208 -0.037241,-0.44636 -0.053318,-0.67197 0.6748196,0.35861 1.3505027,0.60066 1.7948344,0.60952 -0.6459082,-0.55251 -1.3139753,-1.32224 -1.886781,-2.04221 -0.020746,-0.37085 -0.038918,-0.73253 -0.055298,-1.08592 0.6118627,0.30476 1.2071693,0.50424 1.6104867,0.51217 -0.5610009,-0.47989 -1.1418324,-1.12682 -1.6597326,-1.76032 -0.053282,-1.52035 -0.9776951,-5.7367 -0.9776951,-5.7367 4.9310304,6.60402 8.4976864,18.7702 7.3008514,24.90385 l -1.433254,-2.3922 c 0,0 0.308398,-2.61513 -0.131635,-4.19415 -0.329585,-1.18275 -2.5747375,-2.38473 -3.6474907,-3.70327 -0.2700906,-0.33127 -0.4783858,-1.22462 -0.6383463,-2.37502 0.8576643,0.56061 1.8455568,0.9752 2.4314846,0.98676 z" /></svg>